<svg width="118" height="118" viewBox="0 0 118 118" fill="none" xmlns="http://www.w3.org/2000/svg">
<path fill-rule="evenodd" clip-rule="evenodd" d="M24.5096 9.8335C17.7738 9.8335 12.7932 15.7286 13.0193 22.1153C13.2307 28.2612 12.9554 36.2114 10.9543 42.6965C8.9385 49.1963 5.546 53.3165 0 53.8475V59.8212C5.546 60.3473 8.94342 64.4675 10.9494 70.9722C12.9554 77.4573 13.2307 85.4076 13.0144 91.5485C12.7932 97.9402 17.7738 103.835 24.5096 103.835H93.5002C100.236 103.835 105.217 97.9402 104.99 91.5485C104.779 85.4076 105.054 77.4573 107.055 70.9722C109.066 64.4675 112.454 60.3522 118 59.8212V53.8475C112.454 53.3165 109.066 49.1963 107.055 42.6965C105.054 36.2065 104.779 28.2562 104.99 22.1153C105.217 15.7237 100.231 9.8335 93.5002 9.8335H24.5096ZM79.9942 67.6977C79.9942 76.4986 73.4304 81.8331 62.54 81.8331H43.9993C43.4685 81.8331 42.9595 81.6223 42.5843 81.247C42.209 80.8718 41.9982 80.3628 41.9982 79.8321V33.8317C41.9995 33.3019 42.2109 32.7942 42.586 32.4199C42.9611 32.0457 43.4694 31.8356 43.9993 31.8356H62.4367C71.5178 31.8356 77.4817 36.7522 77.4817 44.3092C77.4817 49.6093 73.4697 54.3539 68.3613 55.1897V55.4651C75.3184 56.2272 79.9991 61.0455 79.9991 67.6977H79.9942ZM60.5242 38.1732H49.9533V53.11H58.8574C65.7407 53.11 69.5364 50.337 69.5364 45.381C69.5364 40.7397 66.2718 38.1732 60.5242 38.1732ZM49.9533 59.0346V75.4907H60.9175C68.0811 75.4907 71.8817 72.6144 71.8817 67.211C71.8817 61.8027 67.9778 59.0346 60.4553 59.0346H49.9533V59.0346Z" fill="#6B1DEA"/>
</svg>
