<svg width="116" height="114" viewBox="0 0 116 114" fill="none" xmlns="http://www.w3.org/2000/svg">
<path d="M116 38H48L54 106L82 114L110 106L116 38Z" fill="#0277BD"/>
<path d="M82 44V107.8L104.4 101.4L109.4 44H82Z" fill="#039BE5"/>
<path d="M100.2 54H82V62H91.8L91.2 70H82V78H90.8L90.2 87L82 89.8V98.2L97.8 93L99.2 70L100.2 54Z" fill="white"/>
<path d="M82 54V62H64.2L63.6 54H82ZM72.8 70L73.2 78H82V70H72.8ZM73.6 82H65.6L66.2 93L82 98.2V89.8L73.8 87L73.6 82Z" fill="#EEEEEE"/>
<path d="M68 0H0L6 68L34 76L62 68L68 0Z" fill="#E65100"/>
<path d="M34 6V69.8L56.4 63.4L61.4 6H34Z" fill="#FF6D00"/>
<path d="M34 40V32H51.2L49.8 55L34 60.2V51.8L42.2 49L42.8 40H34V40ZM51.8 24L52.4 16H34V24H51.8Z" fill="white"/>
<path d="M34 51.8V60.2L18.2 55L17.4 44H25.4L25.8 49L34 51.8ZM24.2 24H34V16H15.8L17.2 40H34V32H24.8L24.2 24Z" fill="#EEEEEE"/>
</svg>
