<svg width="88" height="88" viewBox="0 0 88 88" fill="none" xmlns="http://www.w3.org/2000/svg">
<path d="M0 44V0H44H88V44V88H44H0V44ZM38.5236 80.7467C43.8156 79.8321 47.0028 76.4482 47.711 70.9922C47.7823 70.4433 47.8336 63.9396 47.8359 55.1731L47.8398 40.2861H43.7482H39.6567L39.6545 54.3548C39.6532 62.7753 39.6021 68.9003 39.5272 69.6111C39.2792 71.9656 38.3989 73.1115 36.5346 73.5067C33.8939 74.0664 31.9274 73.0068 30.3129 70.1545C30.1071 69.791 29.8793 69.4936 29.8066 69.4936C29.6875 69.4936 23.4997 73.1798 23.2487 73.4003C22.987 73.6302 24.5542 76.0274 25.7758 77.2659C28.776 80.3074 33.5395 81.608 38.5236 80.7467ZM70.186 80.8116C73.551 80.3875 76.2938 79.0874 78.3043 76.9634C79.1281 76.0931 79.4376 75.6469 79.9356 74.6113C80.7534 72.9108 80.9559 72.0506 81.0369 69.9342C81.1834 66.1035 80.1712 63.3942 77.7182 61.0509C75.9598 59.3711 73.7428 58.0736 69.5565 56.2742C65.2632 54.4288 63.9424 53.5849 63.3131 52.285C62.8761 51.3823 62.8988 50.0177 63.3665 49.0652C64.0594 47.6542 65.3965 47.0025 67.3683 47.1149C69.2471 47.2221 70.5573 48.0143 71.7012 49.7349L72.2718 50.5933L75.1547 48.7444C76.7403 47.7275 78.1828 46.7823 78.3602 46.6438L78.6828 46.392L77.9721 45.3384C76.1902 42.697 73.8319 41.0201 70.8524 40.2759C69.3477 39.9001 65.9709 39.8028 64.3319 40.0881C61.6317 40.5581 59.7206 41.5051 57.9616 43.2446C56.3695 44.8193 55.5086 46.3952 55.0626 48.552C54.7484 50.0712 54.8749 52.955 55.3209 54.443C56.4614 58.2474 59.0237 60.6989 64.2895 63.0235C65.3168 63.477 66.9212 64.1859 67.8548 64.5988C71.6163 66.2624 72.8077 67.4549 72.8077 69.5565C72.8077 71.5008 71.5694 72.8538 69.2328 73.4627C67.9813 73.7889 65.5944 73.6737 64.2837 73.2238C62.4975 72.6108 60.7865 71.2316 59.6107 69.4568C59.2718 68.9453 59.0699 68.7498 58.9342 68.8018C58.5439 68.9516 52.372 72.5676 52.372 72.6465C52.372 72.9351 54.2725 75.5171 55.0894 76.3383C58.7121 79.98 64.1049 81.578 70.186 80.8116Z" fill="#EED94D"/>
<path d="M34.0544 80.9316C30.8232 80.694 27.8654 79.3844 25.7758 77.266C24.5541 76.0275 22.987 73.6304 23.2487 73.4004C23.4997 73.18 29.6874 69.4937 29.8066 69.4937C29.8793 69.4937 30.1071 69.7911 30.3129 70.1546C31.9274 73.007 33.8939 74.0665 36.5346 73.5068C38.3989 73.1116 39.2792 71.9657 39.5272 69.6113C39.6021 68.9004 39.6532 62.7754 39.6545 54.3549L39.6567 40.2863H43.7482H47.8398L47.8359 55.1732C47.8336 63.9397 47.7823 70.4434 47.711 70.9923C46.8153 77.8926 41.8521 81.5049 34.0544 80.9316H34.0544ZM65.8341 80.9405C60.2993 80.5556 55.9833 78.1905 53.2379 74.0379C52.7617 73.3175 52.372 72.6914 52.372 72.6466C52.372 72.5677 58.5439 68.9518 58.9342 68.802C59.0699 68.7499 59.2718 68.9454 59.6107 69.4569C60.7865 71.2317 62.4975 72.611 64.2837 73.224C65.5944 73.6738 67.9813 73.789 69.2328 73.4629C71.5694 72.854 72.8077 71.5009 72.8077 69.5566C72.8077 67.4551 71.6164 66.2626 67.8548 64.5989C66.9212 64.1861 65.3168 63.4772 64.2895 63.0236C59.0237 60.699 56.4614 58.2476 55.321 54.4431C54.8749 52.9551 54.7484 50.0713 55.0626 48.5521C55.5086 46.3954 56.3695 44.8194 57.9616 43.2448C59.7206 41.5052 61.6318 40.5582 64.3319 40.0882C65.971 39.803 69.3477 39.9003 70.8525 40.2761C73.8319 41.0203 76.1902 42.6971 77.9721 45.3386L78.6829 46.3921L78.3603 46.6439C78.1828 46.7824 76.7403 47.7277 75.1547 48.7446L72.2718 50.5934L71.7012 49.7351C70.5573 48.0144 69.2472 47.2222 67.3683 47.1151C65.3966 47.0027 64.0594 47.6543 63.3665 49.0653C63.0653 49.6788 63.0117 49.9394 63.0207 50.7472C63.0462 53.03 64.119 53.9372 69.5565 56.2744C73.7428 58.0737 75.9598 59.3712 77.7182 61.051C80.1713 63.3944 81.1834 66.1036 81.0369 69.9343C80.956 72.0507 80.7534 72.9109 79.9356 74.6115C77.8255 78.9991 72.4714 81.4021 65.8341 80.9405V80.9405Z" fill="#31322F"/>
</svg>
