<svg width="154" height="95" viewBox="0 0 154 95" fill="none" xmlns="http://www.w3.org/2000/svg">
<path d="M128.594 29.9359C128.31 24.8062 129.737 19.9555 127.452 15.9687C121.748 5.98828 107.496 0.289844 78.982 0.289844V0V0.284373C47.6187 0.284373 34.2203 5.98828 28.5218 15.9633C26.5844 20.3537 25.7058 25.1381 25.957 29.9305C24.9044 34.3162 24.4247 38.8198 24.5297 43.3289C25.3828 49.6016 25.957 55.8742 26.8101 61.5727C27.6632 66.418 34.5101 70.1258 35.3632 74.6977C37.075 86.9586 47.9086 92.657 79.2664 92.657V94.0844H78.7195V92.657C107.228 92.657 119.188 86.9531 120.916 74.6977C121.463 70.1367 127.189 66.4289 128.026 61.5727C128.879 55.8687 129.169 49.5961 130.022 43.3289C130.016 38.827 129.537 34.3381 128.594 29.9359V29.9359Z" fill="#EFCCA3"/>
<path d="M77.5601 34.4971C82.2243 34.9234 86.5301 37.1786 89.5367 40.7697C93.5289 44.1932 100.086 46.4736 102.935 49.6072C106.404 52.4835 109.059 56.2188 110.635 60.4408C111.725 64.4383 112.3 68.5586 112.347 72.7018C112.347 74.1291 113.2 73.8447 115.48 72.7018C119.997 69.9447 124.041 66.4788 127.457 62.4369C126.604 67.2822 120.616 71.5588 120.047 76.1088C118.335 88.3697 106.375 94.3525 76.9968 94.3525H78.7085" fill="#CCAC8D"/>
<path d="M95.8093 24.8067C96.9523 28.5145 100.655 41.3442 93.2445 37.0676C95.9476 39.1912 97.7737 42.2361 98.3742 45.6207C98.7323 47.4357 99.5862 49.1159 100.841 50.4751C102.096 51.8343 103.703 52.8192 105.484 53.3207C110.408 54.0508 115.422 52.8218 119.451 49.8973C121.815 47.6316 123.436 44.7013 124.098 41.4942C124.76 38.2872 124.432 34.9547 123.159 31.9379C122.291 29.4815 120.721 27.3343 118.643 25.763C116.565 24.1918 114.072 23.2659 111.472 23.1004C106.096 21.6676 94.6664 20.5301 95.8093 24.8067V24.8067Z" fill="#CCAC8D"/>
<path d="M110.351 49.0384C116.177 49.0384 120.9 44.3153 120.9 38.4892C120.9 32.663 116.177 27.9399 110.351 27.9399C104.525 27.9399 99.8015 32.663 99.8015 38.4892C99.8015 44.3153 104.525 49.0384 110.351 49.0384Z" fill="black"/>
<path d="M107.496 36.4934C109.07 36.4934 110.345 35.2177 110.345 33.6441C110.345 32.0706 109.07 30.7949 107.496 30.7949C105.922 30.7949 104.647 32.0706 104.647 33.6441C104.647 35.2177 105.922 36.4934 107.496 36.4934Z" fill="white"/>
<path d="M94.0976 37.9204C99.4615 41.6836 104.429 45.9822 108.923 50.7501C114.053 57.3126 114.053 58.4501 114.053 58.4501L110.345 60.1618C107.573 54.7526 103.571 50.0697 98.6586 46.4899C92.0961 42.7821 91.2484 39.6485 91.2484 39.6485L94.0976 37.9204Z" fill="#EFCCA3"/>
<path d="M77.85 34.4971C72.9398 34.9111 68.3627 37.149 65.0203 40.7697C61.0281 44.1932 53.9023 46.4736 51.3484 49.6072C47.7918 52.4643 45.0402 56.1979 43.364 60.4408C42.2739 64.4383 41.6987 68.5586 41.6523 72.7018C41.6523 74.1291 41.9367 74.4135 38.2289 72.7018C33.6458 70.0368 29.5872 66.5583 26.2523 62.4369C27.1054 67.2822 33.0937 71.5588 33.6625 76.1088C35.3742 88.0853 47.3344 94.0682 76.7125 94.0682H78.7086" fill="#CCAC8D"/>
<path d="M105.216 54.1682C101.945 49.8286 97.7292 46.2899 92.8887 43.8199C88.0481 41.3499 82.7091 40.0132 77.2758 39.9111C71.849 40.0473 66.5218 41.3988 61.6865 43.8662C56.8511 46.3335 52.6307 49.8539 49.3359 54.1682C47.1414 56.4533 45.4892 59.2029 44.5018 62.2133C43.5144 65.2238 43.2171 68.4178 43.632 71.5588C43.632 96.9338 52.4695 89.2338 58.4578 92.3729C64.4215 94.3627 70.7641 94.9485 76.9914 94.0846C83.2183 94.9617 89.564 94.3756 95.525 92.3729C101.513 89.2393 110.351 96.9338 110.351 71.5588C111.058 68.463 110.957 65.2374 110.058 62.1919C109.158 59.1464 107.491 56.3833 105.216 54.1682V54.1682Z" fill="#56332B"/>
<path d="M76.707 47.0425C76.492 51.7933 75.6291 56.4924 74.1422 61.0097L77.2757 60.1565L76.707 47.0425Z" fill="#442823"/>
<path d="M77.5601 47.0425C77.7751 51.7933 78.638 56.4924 80.1249 61.0097L76.9913 60.1565L77.5601 47.0425Z" fill="#442823"/>
<path d="M67.5851 44.1934C66.4421 41.3441 70.7187 36.7832 77.5656 36.7832C84.4124 36.7832 88.6835 41.3441 87.546 44.1934C86.4085 47.0426 81.8421 47.9012 77.5656 47.9012C72.9992 47.8957 68.7226 47.0426 67.5851 44.1934Z" fill="#56332B"/>
<path d="M77.5601 47.0424C77.5601 46.4955 81.5523 46.4955 83.8328 45.0463C83.8328 45.0463 79.2718 46.4736 78.4133 45.8994C77.8235 45.3775 77.4219 44.6761 77.2703 43.9033C77.1187 44.6761 76.7171 45.3775 76.1273 45.8994C75.2742 46.4463 70.139 45.0463 70.139 45.0463C72.3751 45.5401 74.5692 46.2075 76.7015 47.0424V49.3229C76.5231 53.0378 76.7062 56.7613 77.2484 60.4408C78.1015 61.5838 77.7953 52.4564 77.7953 49.3229C77.5941 48.5804 77.5146 47.8103 77.5601 47.0424V47.0424Z" fill="black"/>
<path d="M77.5601 63.2902C80.7828 63.7201 83.833 64.9998 86.3976 66.998C84.1679 64.1084 81.0705 62.0096 77.5601 61.0098C73.5344 61.8834 69.9772 64.2224 67.5797 67.5723C70.3902 65.1577 73.8736 63.6631 77.5601 63.2902V63.2902Z" fill="#7F4A41"/>
<path d="M76.9914 84.3722C72.5192 84.1252 68.1025 83.2621 63.8664 81.8073C63.0132 81.5229 62.1546 82.0917 61.3015 81.8073C54.4117 79.8552 48.3213 75.7623 43.9109 70.1206V71.2636C43.9109 96.6386 52.7484 88.9386 58.7367 92.0776C64.7004 94.0675 71.043 94.6533 77.2703 93.7894C83.4972 94.6665 89.8429 94.0804 95.8039 92.0776C101.792 88.944 110.63 96.6386 110.63 71.2636V68.6987C106.41 74.8964 100.168 79.4354 92.971 81.5394C92.1179 81.8237 90.6906 81.255 89.8374 81.255C85.767 83.0264 81.421 84.0809 76.9914 84.3722V84.3722Z" fill="#442823"/>
<path d="M65.3046 70.7002C65.3046 70.7002 62.171 79.8221 64.4515 83.8252L61.6023 82.6822C62.5376 78.6019 63.7751 74.5969 65.3046 70.7002V70.7002ZM89.2523 70.7002C89.2523 70.7002 92.3859 79.8221 90.1054 83.8252L92.971 82.6822C92.1674 78.5658 90.9205 74.5483 89.2523 70.7002V70.7002Z" fill="#442823"/>
<path d="M57.889 24.8064C56.746 28.5142 53.0437 41.3439 60.4538 37.0674C57.7508 39.191 55.9246 42.2359 55.3242 45.6205C54.9661 47.4354 54.1122 49.1157 52.8573 50.4749C51.6023 51.834 49.9954 52.819 48.2148 53.3205C43.2862 54.0627 38.2632 52.8414 34.2257 49.9189C31.8614 47.6532 30.2409 44.7229 29.5788 41.5159C28.9167 38.3088 29.2442 34.9763 30.5179 31.9596C31.3853 29.5032 32.9555 27.3559 35.0333 25.7847C37.1111 24.2134 39.6049 23.2875 42.2046 23.1221C47.6296 21.6674 59.032 20.5299 57.889 24.8064Z" fill="#CCAC8D"/>
<path d="M77.2758 61.0095C80.8096 62.0043 83.9689 64.0251 86.3539 66.816C88.7389 69.607 90.2424 73.0427 90.6742 76.6884V76.1415C90.5843 72.355 89.2088 68.7118 86.7739 65.8107C84.3389 62.9096 80.9893 60.9232 77.2758 60.1782C73.5389 60.8749 70.16 62.8476 67.7162 65.7591C65.2725 68.6707 63.9156 72.3405 63.8773 76.1415V76.6884C64.3566 73.0597 65.8772 69.6477 68.2551 66.8651C70.6329 64.0825 73.7662 62.0486 77.2758 61.0095Z" fill="black"/>
<path d="M79.978 44.1269C80.4342 44.0092 80.6127 43.1717 80.3767 42.2563C80.1406 41.3409 79.5794 40.6942 79.1232 40.8119C78.6669 40.9295 78.4884 41.767 78.7245 42.6824C78.9605 43.5978 79.5218 44.2445 79.978 44.1269Z" fill="#331712"/>
<path d="M75.2452 42.7721C75.5253 41.8691 75.3876 41.024 74.9375 40.8844C74.4875 40.7448 73.8957 41.3636 73.6156 42.2665C73.3355 43.1694 73.4732 44.0145 73.9232 44.1541C74.3732 44.2937 74.9651 43.675 75.2452 42.7721Z" fill="#331712"/>
<path d="M43.9218 49.0384C49.748 49.0384 54.4711 44.3153 54.4711 38.4892C54.4711 32.663 49.748 27.9399 43.9218 27.9399C38.0957 27.9399 33.3726 32.663 33.3726 38.4892C33.3726 44.3153 38.0957 49.0384 43.9218 49.0384Z" fill="black"/>
<path d="M46.771 36.4934C48.3446 36.4934 49.6203 35.2177 49.6203 33.6441C49.6203 32.0706 48.3446 30.7949 46.771 30.7949C45.1975 30.7949 43.9218 32.0706 43.9218 33.6441C43.9218 35.2177 45.1975 36.4934 46.771 36.4934Z" fill="white"/>
<path d="M80.3929 38.4893C80.3929 38.4893 77.5437 39.6322 76.9695 39.9166C75.7686 39.5991 74.6168 39.1188 73.546 38.4893H80.3929Z" fill="#7F4A41"/>
<path d="M59.6117 37.9204C54.2478 41.6836 49.2803 45.9822 44.7859 50.7501C39.6562 57.3126 39.6562 58.4501 39.6562 58.4501L43.364 60.1618C46.1358 54.7526 50.1388 50.0697 55.0507 46.4899C61.6132 42.7821 62.4609 39.6485 62.4609 39.6485L59.6117 37.9204Z" fill="#EFCCA3"/>
<path d="M38.7867 18.8181C36.7999 24.0782 33.0787 28.5035 28.2375 31.3634C31.2611 31.005 34.0348 29.5085 35.9944 27.1781C37.954 24.8477 38.9525 21.8584 38.7867 18.8181V18.8181ZM114.343 18.8181C116.33 24.0782 120.051 28.5035 124.892 31.3634C121.869 31.005 119.095 29.5085 117.135 27.1781C115.176 24.8477 114.177 21.8584 114.343 18.8181ZM94.6664 35.3501C90.0837 30.966 84.1578 28.2535 77.8445 27.6501H78.6976C75.5403 27.6121 72.4147 28.2843 69.5522 29.6171C66.6896 30.95 64.1633 32.9093 62.1601 35.3501C66.8652 31.6264 72.6974 29.6148 78.6976 29.6462C84.4404 30.059 89.9617 32.0311 94.6664 35.3501V35.3501ZM86.1133 19.6712C84.0267 16.9265 80.9641 15.0897 77.5601 14.5415H78.4133C76.7069 14.5992 75.0455 15.1033 73.5946 16.0033C72.1438 16.9034 70.9542 18.168 70.1445 19.6712C72.3077 17.3985 75.2774 16.0669 78.4133 15.9634C79.8866 15.998 81.3357 16.3467 82.6635 16.9861C83.9914 17.6255 85.1675 18.5409 86.1133 19.6712V19.6712ZM43.9219 56.7329C40.9339 58.2722 37.4898 58.6782 34.2258 57.8759H33.0883C30.8309 55.55 29.1686 52.7133 28.243 49.6071C29.4272 52.5922 31.7221 55.0023 34.6458 56.331C37.5694 57.6598 40.8943 57.8038 43.9219 56.7329V56.7329ZM110.066 56.7329C113.054 58.2722 116.498 58.6782 119.762 57.8759H118.62C120.297 57.2039 121.749 56.0707 122.809 54.6073C123.869 53.1439 124.493 51.4103 124.608 49.6071C124.17 51.0625 123.436 52.4118 122.452 53.5706C121.468 54.7293 120.256 55.6727 118.891 56.3415C117.526 57.0104 116.038 57.3903 114.52 57.4577C113.001 57.525 111.485 57.2783 110.066 56.7329Z" fill="#CCAC8D"/>
<path d="M50.4788 18.2494C54.5508 17.4497 58.7552 17.6373 62.7398 18.7963C67.8695 20.508 63.8827 27.3494 64.7359 27.6338C66.3793 26.1366 68.3226 25.0062 70.4366 24.3179C72.5506 23.6296 74.7869 23.3991 76.9968 23.6416C86.6929 24.1885 87.8304 28.4869 89.2577 27.6338C90.6851 27.0869 87.8304 15.6572 102.656 18.2275C102.656 18.2275 87.546 14.2354 88.1148 25.0689C84.9946 23.0304 81.369 21.8997 77.6431 21.8031C73.9173 21.7065 70.238 22.6479 67.0163 24.5221C67.0163 24.5221 70.1499 13.9728 50.4788 18.2494V18.2494ZM46.4867 3.43457C46.4867 3.43457 33.3617 19.6877 31.6609 25.9549C29.6648 32.2275 28.2374 58.4557 26.5312 62.1635L20.5429 36.4932L31.6609 9.69629L46.4867 3.43457ZM107.496 3.43457C107.496 3.43457 120.621 19.6877 122.322 25.9549C124.318 32.2275 125.745 58.4557 127.452 62.1635L133.44 36.4932L122.322 9.69629L107.496 3.43457Z" fill="#CCAC8D"/>
<path d="M106.643 3.43474C114.6 10.1953 120.769 18.813 124.602 28.5254C128.594 41.9238 126.883 58.4613 130.022 60.4574C134.583 63.3066 139.428 46.2004 141.14 44.4941C143.705 41.6449 152.542 34.2293 153.116 32.8074C153.691 31.3855 135.441 11.4246 127.173 7.43239C118.045 2.84958 106.096 2.28083 106.643 3.43474Z" fill="#56332B"/>
<path d="M118.62 10.5439C128.713 24.3051 134.382 40.8113 134.873 57.8705L141.435 44.4721C136.515 31.5717 128.711 19.9668 118.62 10.5439V10.5439Z" fill="#442823"/>
<path d="M46.4867 3.43474C38.5293 10.1953 32.3609 18.813 28.5273 28.5254C24.5351 41.9238 26.2468 58.4613 23.1078 60.4574C18.5468 63.3066 13.7015 46.2004 11.9898 44.4941C9.42496 41.6449 0.58746 34.2293 0.0132417 32.8074C-0.560977 31.3855 17.6882 11.4246 25.957 7.43239C35.0843 2.84958 47.0336 2.28083 46.4867 3.43474Z" fill="#56332B"/>
<path d="M34.5101 10.5439C24.4162 24.3051 18.7475 40.8113 18.257 57.8705L11.7054 44.4502C16.6254 31.5587 24.4254 19.9616 34.5101 10.5439V10.5439Z" fill="#442823"/>
<path d="M25.3882 58.1603C25.8393 61.195 26.9056 64.1056 28.5218 66.7134C30.5179 68.7095 29.0687 65.0017 29.0687 65.0017C29.0687 65.0017 27.0726 63.8587 27.357 55.5954C27.6414 47.3321 25.3882 58.1603 25.3882 58.1603V58.1603ZM128.026 58.1603C127.575 61.195 126.508 64.1056 124.892 66.7134C122.896 68.7095 124.345 65.0017 124.345 65.0017C124.345 65.0017 126.341 63.8587 126.057 55.5954C125.745 47.6111 128.026 58.1603 128.026 58.1603V58.1603Z" fill="#CCAC8D"/>
<path d="M65.0202 54.1682C65.4914 54.1682 65.8734 53.7862 65.8734 53.315C65.8734 52.8439 65.4914 52.4619 65.0202 52.4619C64.5491 52.4619 64.1671 52.8439 64.1671 53.315C64.1671 53.7862 64.5491 54.1682 65.0202 54.1682Z" fill="#442823"/>
<path d="M59.3164 60.1564C59.7875 60.1564 60.1695 59.7745 60.1695 59.3033C60.1695 58.8322 59.7875 58.4502 59.3164 58.4502C58.8452 58.4502 58.4633 58.8322 58.4633 59.3033C58.4633 59.7745 58.8452 60.1564 59.3164 60.1564Z" fill="#442823"/>
<path d="M57.6047 54.1682C58.0758 54.1682 58.4578 53.7862 58.4578 53.315C58.4578 52.8439 58.0758 52.4619 57.6047 52.4619C57.1335 52.4619 56.7515 52.8439 56.7515 53.315C56.7515 53.7862 57.1335 54.1682 57.6047 54.1682Z" fill="#442823"/>
<path d="M88.3991 54.1682C88.8703 54.1682 89.2523 53.7862 89.2523 53.315C89.2523 52.8439 88.8703 52.4619 88.3991 52.4619C87.928 52.4619 87.546 52.8439 87.546 53.315C87.546 53.7862 87.928 54.1682 88.3991 54.1682Z" fill="#442823"/>
<path d="M93.8132 60.1564C94.2844 60.1564 94.6663 59.7745 94.6663 59.3033C94.6663 58.8322 94.2844 58.4502 93.8132 58.4502C93.342 58.4502 92.9601 58.8322 92.9601 59.3033C92.9601 59.7745 93.342 60.1564 93.8132 60.1564Z" fill="#442823"/>
<path d="M95.5249 54.1682C95.9961 54.1682 96.3781 53.7862 96.3781 53.315C96.3781 52.8439 95.9961 52.4619 95.5249 52.4619C95.0538 52.4619 94.6718 52.8439 94.6718 53.315C94.6718 53.7862 95.0538 54.1682 95.5249 54.1682Z" fill="#442823"/>
</svg>
