<svg width="120" height="90" viewBox="0 0 120 90" fill="none" xmlns="http://www.w3.org/2000/svg">
<path d="M103.329 51.7377C99.1431 51.7593 95.5045 52.7676 92.4581 54.2583C91.3399 52.0442 90.2221 50.0717 90.0252 48.6247C89.8056 46.9371 89.5429 45.9067 89.8056 43.89C90.0689 41.8734 91.2524 39.0016 91.2304 38.7825C91.2087 38.5635 90.9671 37.5331 88.5563 37.5114C86.1454 37.4893 84.0631 37.9717 83.8219 38.6072C83.5808 39.2428 83.1206 40.6897 82.8137 42.1799C82.3972 44.3723 77.9919 52.1974 75.4715 56.2966C74.6602 54.6969 73.9589 53.2936 73.8052 52.1758C73.5862 50.4882 73.3229 49.4577 73.5862 47.4411C73.8494 45.4244 75.033 42.5531 75.0109 42.3336C74.9888 42.1145 74.7476 41.0841 72.3368 41.0625C69.9254 41.0404 67.8431 41.5227 67.6025 42.1582C67.3613 42.7943 67.0981 44.2844 66.5942 45.7314C66.0898 47.1783 60.2377 60.2429 58.7035 63.6181C58.0835 64.9843 57.4331 66.3364 56.7528 67.6736C56.7528 67.6736 56.7307 67.7394 56.6649 67.8489C56.4512 68.2682 56.2321 68.6847 56.0078 69.0984V69.12C55.6788 69.7123 55.3281 70.26 55.1528 70.26C55.0212 70.26 54.78 68.6819 55.1965 66.5336C56.0731 61.9963 58.1554 54.938 58.1338 54.6969C58.1338 54.5652 58.5282 53.3378 56.7749 52.7018C55.0649 52.0662 54.4515 53.1183 54.2978 53.1183C54.1445 53.1183 54.0345 53.4911 54.0345 53.4911C54.0345 53.4911 55.942 45.556 50.3964 45.556C46.9335 45.556 42.155 49.3482 39.7878 52.7676C37.0969 54.2321 34.4082 55.7008 31.7218 57.1737C30.4292 57.8972 29.0919 58.6207 27.8425 59.2999C27.7546 59.2125 27.6672 59.1025 27.5793 59.0151C20.8722 51.8472 8.46667 46.7834 8.99265 37.1607C9.19007 33.6534 10.3953 24.4468 32.818 13.2677C51.273 4.17056 65.9587 6.69116 68.5012 12.281C72.1394 20.2602 60.6326 35.0783 41.5632 37.2261C34.2864 38.0375 30.4724 35.2315 29.5084 34.1795C28.5001 33.0832 28.3464 33.0174 27.9737 33.2369C27.3602 33.566 27.7546 34.5522 27.9737 35.122C28.5438 36.6122 30.8889 39.2428 34.8561 40.5364C38.3631 41.6759 46.8893 42.312 57.213 38.3223C68.7639 33.8504 77.7945 21.4218 75.1425 11.0098C72.49 0.444186 54.9553 -3.04103 38.3631 2.85526C28.5001 6.36304 17.8037 11.8866 10.1104 19.0765C0.970345 27.625 -0.476462 35.0562 0.115328 38.1691C2.24183 49.2166 17.4751 56.4065 23.5684 61.7331C23.2614 61.9084 22.9761 62.0622 22.7354 62.1938C19.6886 63.7061 8.07183 69.7777 5.17868 76.2005C1.89117 83.4779 5.70514 88.6954 8.22553 89.3963C16.0504 91.5667 24.0944 87.6649 28.4122 81.2201C32.7301 74.7756 32.2041 66.402 30.2097 62.5661C30.1876 62.5224 30.166 62.4782 30.1218 62.4345C30.911 61.9743 31.7218 61.4919 32.511 61.0317C33.9615 60.1742 35.4305 59.3482 36.9168 58.5544C36.1713 60.5931 35.6232 63.0263 35.3605 66.5336C35.0314 70.6549 36.7189 76.003 38.9328 78.1071C39.9195 79.0285 41.0809 79.0501 41.8264 79.0501C44.4126 79.0501 45.5746 76.9018 46.8677 74.3591C48.4457 71.2467 49.8704 67.6299 49.8704 67.6299C49.8704 67.6299 48.095 77.4062 52.9172 77.4062C54.6705 77.4062 56.4459 75.1263 57.2351 73.9647V73.9864C57.2351 73.9864 57.2788 73.9206 57.3667 73.7673C57.542 73.4824 57.6515 73.3066 57.6515 73.3066V73.2634C58.3529 72.0355 59.9313 69.2517 62.2763 64.6265C65.3011 58.6644 68.2163 51.2116 68.2163 51.2116C68.2163 51.2116 68.4796 53.0309 69.3778 56.0559C69.9043 57.8314 70.9995 59.7822 71.8766 61.6673C71.1753 62.654 70.7367 63.2017 70.7367 63.2017L70.7588 63.2237C70.1887 63.9688 69.5752 64.7797 68.8956 65.5695C66.5063 68.4187 63.6573 71.6853 63.2625 72.6273C62.8019 73.7452 62.9118 74.5566 63.789 75.2142C64.4245 75.6965 65.5639 75.7619 66.7258 75.6965C68.8739 75.5428 70.3861 75.0168 71.1311 74.6882C72.2931 74.2717 73.652 73.6357 74.923 72.6932C77.2685 70.9614 78.6928 68.4845 78.5616 65.2188C78.4958 63.4212 77.904 61.6236 77.1806 59.9355C77.4001 59.629 77.5971 59.322 77.8166 59.0151C81.5206 53.6006 84.3921 47.6601 84.3921 47.6601C84.3921 47.6601 84.6553 49.4794 85.5536 52.5048C85.9921 54.0392 86.8909 55.7052 87.6796 57.327C84.1947 60.155 82.0466 63.4428 81.2794 65.5911C79.8989 69.5807 80.9725 71.3779 83.0111 71.7944C83.9314 71.9918 85.2466 71.5532 86.2112 71.1367C87.4385 70.7423 88.8853 70.063 90.2663 69.0542C92.6118 67.3229 94.869 64.9114 94.7374 61.6457C94.6716 60.155 94.2772 58.686 93.7291 57.2612C96.6881 56.0342 100.502 55.3545 105.368 55.9242C115.801 57.1516 117.861 63.6619 117.467 66.4025C117.072 69.1421 114.88 70.6328 114.157 71.093C113.434 71.5537 113.193 71.7069 113.259 72.0355C113.346 72.5178 113.697 72.4962 114.311 72.4083C115.166 72.255 119.79 70.1942 119.987 65.1525C120.316 58.7081 114.179 51.6718 103.329 51.7377V51.7377ZM22.845 78.8748C19.3817 82.6449 14.5599 84.0697 12.4776 82.8644C10.242 81.5707 11.1187 76.003 15.3707 72.0139C17.9569 69.5807 21.2886 67.3224 23.5026 65.9418C24.0065 65.6348 24.7519 65.1967 25.6507 64.6486C25.8039 64.5607 25.8918 64.517 25.8918 64.517L26.4178 64.1879C27.9737 69.8872 26.4836 74.9073 22.845 78.8748V78.8748ZM48.0513 61.7331C46.8456 64.6707 44.3252 72.1892 42.791 71.7727C41.4758 71.4221 40.6645 65.7227 42.5278 60.0892C43.4702 57.2612 45.4646 53.8855 46.6266 52.5707C48.5115 50.4661 50.5938 49.7642 51.0977 50.6198C51.7336 51.7377 48.7963 59.8918 48.0513 61.7331V61.7331ZM68.8518 71.6848C68.3475 71.9481 67.8657 72.1234 67.6462 71.9918C67.4929 71.9039 67.8657 71.5532 67.8657 71.5532C67.8657 71.5532 70.474 68.7477 71.5039 67.4761C72.0961 66.7311 72.797 65.8544 73.5424 64.8676V65.1525C73.5424 68.5066 70.2982 70.7644 68.8514 71.6848H68.8518ZM84.896 68.0243C84.5232 67.761 84.589 66.8843 85.8384 64.1442C86.3207 63.07 87.4601 61.2729 89.4113 59.5411C89.6303 60.2425 89.784 60.9222 89.7619 61.5578C89.7398 65.7885 86.7155 67.3666 84.896 68.0243Z" fill="#CD6799"/>
</svg>
