<svg width="74" height="86" viewBox="0 0 74 86" fill="none" xmlns="http://www.w3.org/2000/svg">
<path d="M15.5625 15.4375C17.2539 15.4375 18.625 14.0664 18.625 12.375C18.625 10.6836 17.2539 9.3125 15.5625 9.3125C13.8711 9.3125 12.5 10.6836 12.5 12.375C12.5 14.0664 13.8711 15.4375 15.5625 15.4375Z" fill="#86621B"/>
<path d="M67.625 24.625H6.375C4.75105 24.6234 3.19407 23.9775 2.04576 22.8292C0.897453 21.6809 0.251622 20.124 0.25 18.5V6.25C0.251622 4.62605 0.897453 3.06907 2.04576 1.92076C3.19407 0.772453 4.75105 0.126622 6.375 0.125H67.625C69.249 0.126622 70.8059 0.772453 71.9542 1.92076C73.1025 3.06907 73.7484 4.62605 73.75 6.25V18.5C73.7484 20.124 73.1025 21.6809 71.9542 22.8292C70.8059 23.9775 69.249 24.6234 67.625 24.625V24.625ZM6.375 6.25V18.5H67.625V6.25H6.375Z" fill="#86621B"/>
<path d="M15.5625 46.0625C17.2539 46.0625 18.625 44.6914 18.625 43C18.625 41.3086 17.2539 39.9375 15.5625 39.9375C13.8711 39.9375 12.5 41.3086 12.5 43C12.5 44.6914 13.8711 46.0625 15.5625 46.0625Z" fill="#86621B"/>
<path d="M67.625 55.25H6.375C4.75105 55.2484 3.19407 54.6025 2.04576 53.4542C0.897453 52.3059 0.251622 50.749 0.25 49.125V36.875C0.251622 35.251 0.897453 33.6941 2.04576 32.5458C3.19407 31.3975 4.75105 30.7516 6.375 30.75H67.625C69.249 30.7516 70.8059 31.3975 71.9542 32.5458C73.1025 33.6941 73.7484 35.251 73.75 36.875V49.125C73.7484 50.749 73.1025 52.3059 71.9542 53.4542C70.8059 54.6025 69.249 55.2484 67.625 55.25ZM6.375 36.875V49.125H67.625V36.875H6.375Z" fill="#86621B"/>
<path d="M15.5625 76.6875C17.2539 76.6875 18.625 75.3164 18.625 73.625C18.625 71.9336 17.2539 70.5625 15.5625 70.5625C13.8711 70.5625 12.5 71.9336 12.5 73.625C12.5 75.3164 13.8711 76.6875 15.5625 76.6875Z" fill="#86621B"/>
<path d="M67.625 85.875H6.375C4.75105 85.8734 3.19407 85.2275 2.04576 84.0792C0.897453 82.9309 0.251622 81.374 0.25 79.75V67.5C0.251622 65.876 0.897453 64.3191 2.04576 63.1708C3.19407 62.0225 4.75105 61.3766 6.375 61.375H67.625C69.249 61.3766 70.8059 62.0225 71.9542 63.1708C73.1025 64.3191 73.7484 65.876 73.75 67.5V79.75C73.7484 81.374 73.1025 82.9309 71.9542 84.0792C70.8059 85.2275 69.249 85.8734 67.625 85.875ZM6.375 67.5V79.75H67.625V67.5H6.375Z" fill="#86621B"/>
</svg>
